<svg xmlns="http://www.w3.org/2000/svg" xmlns:xlink="http://www.w3.org/1999/xlink" id="e7A4PeBvSQx1" viewBox="0 0 430 449"><style><![CDATA[#e7A4PeBvSQx2_tr {animation: e7A4PeBvSQx2_tr__tr 3000ms linear infinite normal forwards}@keyframes e7A4PeBvSQx2_tr__tr { 0% {transform: translate(188.537895px,127.308815px) rotate(0deg)} 50% {transform: translate(188.537895px,127.308815px) rotate(-7deg)} 100% {transform: translate(188.537895px,127.308815px) rotate(0deg)}} #e7A4PeBvSQx3_to {animation: e7A4PeBvSQx3_to__to 3000ms linear infinite normal forwards}@keyframes e7A4PeBvSQx3_to__to { 0% {transform: translate(243.417702px,302.156754px)} 23.333333% {transform: translate(244px,299px)} 50% {transform: translate(243.417702px,302.156754px)} 70% {transform: translate(243.417702px,299px)} 100% {transform: translate(243.417702px,302.156754px)}} #e7A4PeBvSQx6_tr {animation: e7A4PeBvSQx6_tr__tr 3000ms linear infinite normal forwards}@keyframes e7A4PeBvSQx6_tr__tr { 0% {transform: translate(65.576347px,341.796066px) rotate(0deg)} 50% {transform: translate(65.576347px,341.796066px) rotate(7deg)} 100% {transform: translate(65.576347px,341.796066px) rotate(0deg)}} #e7A4PeBvSQx12_to {animation: e7A4PeBvSQx12_to__to 3000ms linear infinite normal forwards}@keyframes e7A4PeBvSQx12_to__to { 0% {transform: translate(123.837009px,187.575279px)} 60% {transform: translate(120px,182px)} 100% {transform: translate(123.837009px,187.575279px)}} #e7A4PeBvSQx14_to {animation: e7A4PeBvSQx14_to__to 3000ms linear infinite normal forwards}@keyframes e7A4PeBvSQx14_to__to { 0% {transform: translate(330.702377px,357.693298px)} 63.333333% {transform: translate(330.702377px,354px)} 100% {transform: translate(330.702377px,357.693298px)}} #e7A4PeBvSQx15_to {animation: e7A4PeBvSQx15_to__to 3000ms linear infinite normal forwards}@keyframes e7A4PeBvSQx15_to__to { 0% {transform: translate(157.638382px,382.288925px)} 40% {transform: translate(152px,382.288925px)} 100% {transform: translate(157.638382px,382.288925px)}} #e7A4PeBvSQx16_to {animation: e7A4PeBvSQx16_to__to 3000ms linear infinite normal forwards}@keyframes e7A4PeBvSQx16_to__to { 0% {transform: translate(310.809357px,162.554169px)} 33.333333% {transform: translate(313px,158px)} 100% {transform: translate(310.809357px,162.554169px)}}]]></style><g id="e7A4PeBvSQx2_tr" transform="translate(188.537895,127.308815) rotate(0)"><path d="M179.291,119.051c.057,6.317,2.675,11.212,7.513,15.367c2.618-2.277,4.098-5.18,6.203-7.57c3.7-4.325,7.968-7.911,13.432-9.675c5.35-1.765,11.44.341,13.944,4.325c3.301,5.179,2.903,11.667-.968,16.448-5.976,7.342-17.586,10.302-27.204,6.545-2.448-.967-3.358-.341-4.212,1.879-.797,2.105-1.764,4.211-1.935,6.488-.171,2.105.398,3.756,2.789,4.211c2.276.456,2.902,1.992,2.447,4.041-.455,2.163-2.163,2.391-3.984,2.277-4.041-.342-7.399-4.269-7.683-8.936-.285-4.041.967-7.683,2.845-11.155.968-1.764,1.309-2.846-.683-4.667-5.748-5.065-9.277-11.496-8.992-19.464.057-2.049-1.081-2.561-2.618-3.017-3.927-1.195-7.57-3.073-10.757-5.634-5.691-4.496-6.545-11.326-2.276-16.5052c1.593-1.8781,3.585-2.618,5.976-2.7888c1.65-.1138,2.788.5123,3.187,2.1628.341,1.6505-.057,3.244-1.651,3.8701-1.821.7399-3.642,1.0814-3.699,3.5851-.057,2.505,1.593,4.155,3.244,5.407c2.732,2.049,5.862,3.415,9.618,3.984c1.48-4.098,3.472-7.968,6.375-11.2687c3.756-4.2116,8.48-6.6589,14.001-7.3988c5.463-.7399,10.756,2.1627,12.691,6.602c2.106,4.8375.626,11.8955-3.301,15.4805-4.439,3.984-9.732,5.635-15.651,5.521-2.732-.171-5.464-.114-8.651-.114Zm13.375,18.838c5.521,2.163,10.529,2.334,15.594.456c3.131-1.139,5.692-2.903,7.114-6.09c1.253-2.846.911-6.261-.91-7.968-1.764-1.651-4.838-1.878-7.74-.398-6.033,3.073-9.847,8.309-14.058,14Zm-12.464-25.895c3.301.739,6.545,1.024,9.732.683c3.813-.399,7.513-1.366,9.96-4.667c1.594-2.163,2.561-4.667,1.081-7.399-1.366-2.5044-3.699-2.9597-6.317-2.789-6.147.4553-12.294,6.317-14.456,14.172Z" transform="translate(-188.537895,-127.308815)" fill="#fecd3e"></path></g><g id="e7A4PeBvSQx3_to" transform="translate(243.417702,302.156754)"><path d="M249.636,306.98c3.927-3.927,4.041-12.065.512-16.049-1.252-1.366-2.333-.74-3.586-.342-5.805,1.821-11.212,1.366-15.992-2.789-2.618-2.276-3.586-5.008-2.618-7.512c1.195-3.017,3.927-4.667,7.455-4.553c4.212.113,7.854,1.878,11.44,3.87.968.569,1.935,1.195,2.96,1.878c3.642-2.732,5.748-6.318,6.658-10.643.399-1.992,0-3.927-1.309-5.634-1.309-1.765-1.764-3.871.342-5.236c2.049-1.31,3.699-.057,5.008,1.764c3.472,4.667,3.074,9.618.968,14.513-1.309,3.13-3.187,6.033-5.578,8.48-.91.968-1.138,1.651-.398,2.96c4.951,8.366,5.236,16.448-1.708,23.96-1.195,1.309-.398,2.391,0,3.643c2.732,8.081,2.675,15.822-2.959,22.822-4.553,5.635-12.578,8.139-19.465,6.033-2.048-.626-2.959-1.935-2.504-4.041.456-2.219,2.163-2.675,3.87-2.163c5.464,1.48,10.074.114,13.432-4.325c3.643-4.781,3.472-10.245,1.821-15.708-.512-1.765-1.65-1.935-3.301-1.594-5.236,1.082-10.358.399-15.253-1.878-5.463-2.561-7.398-9.903-3.984-14.456c2.22-3.017,5.464-3.187,8.765-2.675c5.35.854,9.049,4.496,12.92,7.854.853.683,1.309,1.537,2.504,1.821Zm-7.058,3.074c-2.333-3.244-5.406-5.293-8.992-6.545-1.024-.342-2.333-.513-3.073.739-.683,1.253-.285,2.391.683,3.358c3.187,3.188,7.228,2.96,11.382,2.448Zm.114-25.042c-2.959-2.562-5.748-3.245-7.854-2.049c2.448,2.162,3.529,2.447,7.854,2.049Z" transform="translate(-243.417702,-302.156754)" fill="#ed688d"></path></g><path d="M37.7456,113.246c-2.618.739-5.0084,1.593-7.5126,2.162-8.594,1.878-17.188-2.39-20.1475-9.903-2.04889-5.293.1138-10.0734,5.293-12.35c8.3094-3.6425,20.6028.683,25.2128,7.911.2277.342.4553.626.6261.854c8.4232-5.3501,8.3663-19.7493.1707-25.27-.8537-.5691-1.7643-1.0813-2.6749-1.6505-1.7075-1.1952-1.8782-2.9026-1.0814-4.5531s2.3904-1.7074,3.9839-1.0244c6.4882,2.9595,10.5291,7.8541,12.0089,14.8545c1.8212,8.8785-1.1952,16.2205-7.3988,22.4245-1.4229,1.422-1.8782,2.731-1.7644,4.723.683,11.611-5.5775,20.945-16.0497,24.303-9.1631,2.902-21.45646-1.309-27.09093-9.277-1.365929-1.879-2.162715-3.7.11384-5.407c2.21964-1.651,3.64248-.114,4.9515,1.536c5.06529,6.261,11.55349,8.651,19.40759,6.944c7.2281-1.537,13.0902-9.448,11.9519-16.277Zm-1.6505-7.058c-2.5611-5.463-9.22-8.5937-16.1635-7.6831-4.0978.5122-5.293,3.1301-2.9026,6.5451.4553.683,1.0814,1.309,1.7643,1.821c4.4962,3.586,12.2934,3.301,17.3018-.683Z" fill="#ed688d"></path><path d="M233.814,202.6c-3.073,3.813-5.635,7.001-8.196,10.302-6.317,8.195-17.529,12.521-27.432,7.797-7.342-3.529-9.448-11.952-4.61-18.099c1.593-2.049,3.756-3.187,6.317-3.301c1.594-.057,3.131.285,3.415,2.22.285,1.764.057,3.472-2.106,4.041-1.935.512-3.585,1.195-3.699,3.642-.057,2.277.797,3.927,2.789,5.179c4.951,3.131,9.789,1.708,14.456-.512c3.699-1.764,6.146-4.951,8.537-8.196c2.276-3.13,4.61-6.26,7.456-8.935c2.845-2.675,4.61-2.39,6.829.797c3.301,4.724,3.813,10.415,5.578,15.651.114.342.114.74.227,1.081.968,2.334,2.163,4.724,4.667,5.35c2.675.683,3.472-2.049,4.895-3.585c1.878-2.049,2.618-4.781,4.439-6.887c9.619-11.212,27.433-12.578,37.62.171c3.358,4.269,4.781,9.391,5.066,14.741.113,2.276-.626,3.984-3.188,4.097-2.618.114-3.585-1.707-3.528-3.87.114-4.097-1.252-7.455-3.529-10.813-4.496-6.602-14.171-8.765-21.741-4.838-4.781,2.447-7.228,6.773-9.846,11.041-3.472,5.692-8.537,8.139-13.432,6.033-2.959-1.252-5.008-3.642-6.374-6.602-1.878-4.041-2.96-8.366-3.699-12.749-.114-.91-.456-1.878-.911-3.756Z" fill="#e0c1dc"></path><g id="e7A4PeBvSQx6_tr" transform="translate(65.576347,341.796066) rotate(0)"><path d="M61.4226,344.942c-1.5936-.285-2.7319.398-3.9271.626-1.4798.227-2.9595.569-4.4962.626-3.0164.228-5.6914-.569-7.1142-3.529-1.3659-2.902-.1138-5.407,1.7643-7.512c2.5611-2.846,5.8621-4.838,9.1062-6.773c5.8052-3.472,11.6674-6.773,18.6678-6.944c7.3418-.17,11.7242,4.838,10.0737,12.009-2.1058,9.22-6.5451,17.53-11.895,25.27-.3415.455-.7968.797-1.1952,1.195-4.0978,3.927-8.7647,2.561-10.3583-2.903-1.1383-3.927-.7399-7.911-.626-12.065Zm6.9434,10.301c3.4718-5.179,6.2036-9.903,8.2525-14.968c1.0814-2.732,2.5043-5.35,2.7888-8.31.3415-3.13-.8537-4.382-4.0409-4.325-.9106,0-1.8781.171-2.7887.455-4.667,1.366-9.0493,3.415-13.0902,5.976-2.4473,1.537-5.1792,2.903-6.9435,5.692c2.7319.113,4.9515-.854,7.2281-1.309c3.5855-.683,4.9514-4.383,8.3663-5.464c2.0489-.626,3.5286-1.309,4.8946.626c1.4797,2.106.0569,3.472-1.366,4.838-.9675.853-2.2765,1.309-2.7318,2.731-1.3659,4.326-1.9351,8.708-.5692,14.058Z" transform="translate(-65.576347,-341.796066)" fill="#09b1ab"></path></g><path d="M121.523,52.7465c-4.952-2.1058-9.618-3.8701-13.546-7.0573-2.731-2.2197-4.211-4.9515-3.414-8.3663.796-3.358,3.585-5.5776,6.772-5.6914c10.131-.3415,20.034.9675,27.774,8.594c8.025,7.8541,6.375,17.8709-1.878,24.8144-2.959,2.5042-6.09,4.7807-9.732,6.2605-4.895,1.992-10.245.7968-12.123-2.7888-2.447-4.7238-.967-10.8136,3.415-13.83.797-.5692,1.537-1.1383,2.732-1.9351ZM110.652,39.201c2.448,2.4473,5.293,4.3255,8.538,5.7483c4.268,1.8782,8.764,2.8457,13.317,3.4148c1.765.2277,2.106,1.366,2.448,2.675.284,1.1383-.228,2.5611-1.025,2.6749-3.415.3984-5.179,3.6425-8.309,4.3255-1.935.4553-2.96,1.992-4.098,3.301-.968,1.0813-.854,2.4473-.171,3.6994.797,1.3659,1.992.7968,3.017.4553c4.097-1.3659,7.569-3.6994,10.529-6.8297c4.553-4.7807,3.813-11.6673-1.651-15.4236-5.919-4.0409-12.692-5.0084-19.578-5.5776-1.195-.1138-2.334,0-3.017,1.5367Z" fill="#e0c1dc"></path><path d="M367.846,202.942c3.528.227,5.976-.683,7.285-3.643c1.138-2.618.341-5.691-2.106-7.968-1.025-.967-2.22-1.764-3.301-2.675-4.496-3.984-4.667-8.878-.399-13.09c2.22-2.163,4.724-4.098,7.001-6.203c2.789-2.619,2.561-4.44-.569-6.546-1.196-.796-2.391-1.536-3.586-2.276-6.09-3.586-6.26-10.302-.341-14.172c1.309-.853,2.504-1.707,3.301-3.016c1.764-2.96.512-5.805-2.846-6.431-.911-.171-1.935-.171-2.789-.399-1.48-.455-2.447-1.536-2.333-3.13.17-1.651.967-2.675,2.902-2.903c5.009-.512,9.334,1.708,11.44,6.204c1.935,4.098.854,9.106-2.675,12.464-1.024.968-2.163,1.821-3.358,2.618-2.106,1.423-1.48,2.504.285,3.529c1.309.74,2.675,1.423,3.927,2.276c6.089,4.098,6.829,10.643,1.65,15.936-1.935,1.935-4.155,3.586-6.203,5.407-3.074,2.789-2.846,3.927.455,6.317c4.325,3.074,6.886,7.115,6.545,12.749-.455,7.684-9.277,13.659-16.505,11.041-1.309-.455-2.106-1.252-2.049-2.675.057-1.593.797-2.731,2.334-3.187.739-.284,1.65-.227,1.935-.227Z" fill="#fecd3e"></path><path d="M261.133,410.734c-1.935,1.423-2.618,3.757-3.927,5.521-1.708,2.333-3.7,4.268-6.432,5.407-3.756,1.593-7.341.91-10.073-2.049-.911-.968-1.651-2.049-3.074-2.618-1.935,1.536-2.902,3.87-4.496,5.748-4.667,5.578-12.749,6.204-17.245,1.195-2.732-3.016-3.358-6.488-2.049-10.301.569-1.764,1.935-2.22,3.643-1.935c1.821.341,2.675,1.707,2.276,3.358-.626,2.561-.341,4.553,2.277,5.634c2.106.854,5.179-.341,6.716-2.504.74-1.081,1.48-2.22,2.219-3.301c3.927-5.748,8.537-6.033,13.261-.854c2.448,2.675,4.952,2.561,7.001-.398.74-1.081,1.423-2.22,2.162-3.301.968-1.423,1.879-2.846,2.903-4.212c2.106-2.732,5.179-3.244,7.968-1.195c1.309.968,2.39,2.163,3.529,3.244c1.707,1.594,3.756,2.106,5.691.74c1.764-1.309,2.22-3.187,1.195-5.35-.284-.569-.455-1.252-.626-1.878-.398-1.707.455-2.789,1.935-3.358c1.423-.569,2.732-.341,3.7,1.138c2.845,4.269,2.333,10.302-1.252,13.887-3.472,3.472-9.619,3.643-13.831.456-1.195-.968-2.333-2.049-3.471-3.074Z" fill="#fecd3e"></path><path d="M30.1191,187.176c-4.3823.114-7.4557,2.505-10.0737,5.521-1.4229,1.651-2.5611,3.529-3.6994,5.35-1.1383,1.878-2.5042,3.301-4.7808,1.935-2.21962-1.366-1.76431-3.244-.6829-5.179c4.61-8.423,10.9274-14.285,21.1719-14.172c1.4797,0,2.1058-1.024,2.9595-1.878c3.8702-4.041,8.7078-5.919,14.2285-5.919c2.2196,0,4.3823.512,4.3823,3.301s-2.0489,3.244-4.3823,3.13c-3.5287-.113-6.602,1.139-9.5616,3.529c2.2197,1.878,4.2117,3.586,5.293,6.09c2.5042,5.748.6261,12.919-4.2116,15.936-2.1627,1.366-3.8701,1.195-5.5776-.626-3.0733-3.301-4.8376-7.171-5.1222-11.725c0-1.65.0569-3.357.0569-5.293Zm8.3663,10.928c2.4473-3.586,1.6505-7.114-1.8781-9.22-.8537,3.358.2846,6.204,1.8781,9.22Z" fill="#47b1e4"></path><path d="M312.07,89.285c-3.472.2277-5.635-1.8781-7.627-4.2685-2.219-2.7319-3.984-2.6749-6.203.1708-1.366,1.7643-2.96,3.4148-4.212,5.2929-4.496,6.7159-12.749,6.2036-18.042,1.366-1.935-1.7644-3.756-3.7563-5.748-5.5207-3.301-2.9595-5.293-2.7887-8.195.6261-1.082,1.309-2.448,1.4228-3.814.7399-1.707-.8537-2.106-2.2766-1.593-4.0978c1.024-3.4149,5.577-6.2036,9.504-5.8622c3.814.3415,6.773,2.2197,9.448,4.7239c1.821,1.6505,3.472,3.4717,5.464,5.0084c3.187,2.5042,5.862,2.0489,8.309-1.1952c1.821-2.3904,3.301-5.0653,5.748-7.0004c5.578-4.4393,9.505-4.2116,14.115,1.2521c1.651,1.992,3.244,2.7319,5.578,1.309.91-.5691,1.536-1.1382,1.764-2.3334.398-2.1058,1.65-3.6425,3.927-3.9271c1.764-.2276,3.13.7968,3.984,2.2197c1.138,1.8781.626,3.8701-.626,5.2929-3.13,3.5856-7,5.8052-11.781,6.2036Z" fill="#ed688d"></path><g id="e7A4PeBvSQx12_to" transform="translate(123.837009,187.575279)"><path d="M114.294,177.444c-8.993.854-12.749-6.26-12.408-11.212.114-1.422.456-2.845,1.879-3.642c1.138-.626,2.219-.228,3.187.398c1.138.683,1.252,1.765,1.309,2.96.227,3.984,1.707,5.293,5.748,5.293.968,0,1.878-.114,2.846-.114c7.74-.114,12.919,7.342,10.13,14.513-.398.968-.796,1.935-1.195,2.903-1.309,3.244-.74,4.097,2.789,3.87c2.277-.171,4.496-.569,6.773-.911c3.585-.569,6.545.512,8.708,3.472c2.049,2.846,2.276,6.09.796,9.163-1.593,3.358-3.984,6.204-7.341,8.082-1.594.91-3.188,1.024-4.269-.626-1.024-1.48-.797-3.017.683-4.269c1.48-1.309,3.13-2.447,4.268-4.154.968-1.48,1.423-3.017.513-4.497-.854-1.423-2.448-1.024-3.87-.796-2.163.341-4.326.683-6.489.853-3.471.228-6.659-.512-8.707-3.642-1.992-3.074-1.196-6.147.398-9.163c1.992-3.757,1.821-6.033-.683-7.798-1.65-1.195-3.472-.512-5.065-.683Z" transform="translate(-123.837009,-187.575279)" fill="#09b1ab"></path></g><path d="M201.714,12.7926c-.17,3.1872-1.65,5.8052-3.927,7.911-1.935,1.7644-4.154,3.2441-6.09,5.0654-2.674,2.5042-2.561,4.4392.228,6.8865c1.935,1.7074,3.87,3.301,5.122,5.6345c2.106,3.8701,1.537,7.3419-1.707,10.2445-2.561,2.3334-5.691,3.9839-7.626,7.1142-1.025,1.6505-3.131,2.0489-5.123,1.4229-1.309-.3984-2.333-1.1383-2.675-2.6181-.341-1.5367.342-2.5611,1.48-3.4148c2.903-2.1627,5.748-4.3255,8.708-6.3744c2.106-1.4228,2.163-2.9026.455-4.61-.967-.9106-1.935-1.8212-2.902-2.7318-5.749-5.1223-5.806-11.1551-.057-16.3343c2.049-1.8212,4.268-3.4717,6.203-5.4068c2.391-2.3335,2.049-4.0409-1.024-5.3499-3.13-1.30903-6.488-2.04891-9.163-4.38237-1.537-1.36593-1.878-2.84569-.683-4.49619c1.138-1.536674,2.845-1.764327,4.268-.682965C189.421,2.4343,192.039,3.11727,194.6,4.0848c4.61,1.76433,7.171,4.9515,7.114,8.7078Z" fill="#09b1ab"></path><g id="e7A4PeBvSQx14_to" transform="translate(330.702377,357.693298)"><path d="M326.242,351.259c-4.781-.171-8.309,1.935-11.553,4.895-.399.398-.797.796-1.196,1.195-1.422,1.48-3.016,1.65-4.553.341-1.764-1.479-1.366-3.301-.057-4.78c4.383-4.952,9.847-7.911,16.562-8.253c5.521-.285,8.481,3.586,6.887,8.879-.398,1.309-1.309,2.561-.968,4.154c2.277.797,3.984-.398,5.692-1.536c3.016-2.049,6.09-3.927,9.96-3.301c4.837.796,7.398,4.439,6.431,9.22-.398,1.935-1.081,3.756-1.081,5.805c0,1.707-1.423,2.675-3.017,2.846-1.537.17-2.447-.74-2.959-2.163-.854-2.277-.285-4.439.341-6.659.683-2.277-.057-3.016-2.39-2.447-2.163.569-3.757,2.219-5.635,3.244-1.878,1.081-3.813,1.707-5.919,1.707-5.862,0-9.106-4.268-7.626-9.846.341-1.024.74-2.049,1.081-3.301Z" transform="translate(-330.702377,-357.693298)" fill="#47b1e4"></path></g><g id="e7A4PeBvSQx15_to" transform="translate(157.638382,382.288925)"><path d="M160.452,364.293c4.382,0,7.512,1.935,8.48,5.179.455,1.48.797,3.016-.968,3.984-1.65.91-3.016.626-4.325-.74-1.366-1.423-2.789-3.13-5.066-1.423-2.105,1.537-2.162,3.699-.227,5.805c2.106,2.334,4.382,4.383,6.374,6.83c3.7,4.553,1.423,14.797-7.114,16.22-3.301.569-6.431-.398-9.22-1.992-1.423-.796-2.561-2.105-2.39-3.927.113-1.423,1.024-2.39,2.39-2.902c1.537-.626,2.504.512,3.585,1.195c2.789,1.764,5.578,1.707,7.172-.228c1.536-1.878,1.024-4.325-1.423-6.773-1.821-1.764-3.643-3.471-5.179-5.52-2.562-3.358-2.618-6.83-.911-10.358c1.764-3.7,4.667-5.635,8.822-5.35Z" transform="translate(-157.638382,-382.288925)" fill="#e0c1dc"></path></g><g id="e7A4PeBvSQx16_to" transform="translate(310.809357,162.554169)"><path d="M309.281,165.549c-.113,1.821.74,2.789,1.139,3.927c1.081,3.187.114,6.204-2.561,7.968-2.732,1.821-6.375,1.593-8.708-.455-1.423-1.309-2.504-2.903-1.252-4.724c1.252-1.878,3.13-1.935,4.951-.512.342.227.683.341,1.252,0c.285-1.31-.796-2.277-1.195-3.415-1.764-5.009.569-8.765,5.862-9.163c1.765-.114,3.586-.057,5.407-.057c2.106,0,3.586-1.082,3.586-3.188c0-2.105-1.594-2.845-3.472-2.959-.626-.057-1.366-.057-1.935-.228-1.537-.512-2.277-1.707-2.22-3.301.057-1.65,1.025-2.504,2.618-2.845c4.952-1.025,10.472,2.788,11.383,7.911.911,5.179-2.903,10.472-8.196,10.984-2.162.228-4.382.057-6.659.057Z" transform="translate(-310.809357,-162.554169)" fill="#47b1e4"></path></g><path d="M323.908,307.891c-4.155,0-5.293-.854-5.236-3.244.057-2.334,1.594-2.846,3.642-2.96c7.798-.512,13.261-4.724,15.595-11.895.398-1.252.569-2.561.626-3.87.114-2.22,1.024-3.756,3.301-3.756c2.333,0,2.902,1.878,3.016,3.756.285,5.122-1.707,9.448-4.837,13.261-4.326,5.35-10.017,8.423-16.107,8.708Z" fill="#fecd3e"></path><path d="M17.3701,253.709c-.1138-2.106.3984-3.87,2.9026-4.041c2.3904-.114,3.2441,1.366,3.5286,3.529c1.0814,9.106,2.2197,18.212,3.301,27.262.2277,2.105.0001,4.097-2.618,4.553-2.2196.398-3.4148-.854-3.8132-3.813-1.0814-8.822-2.1627-17.644-3.2441-26.409c0-.284,0-.682-.0569-1.081Z" fill="#f06d4f"></path><path d="M124.595,262.986c3.415-.171,6.545.74,9.334,2.789c1.708,1.252,2.277,2.789,1.082,4.61-1.139,1.764-2.675,1.878-4.383.797-7-4.155-16.334-.57-18.895,6.829-.683,1.992-2.163,2.732-4.269,1.935-2.219-.91-2.219-2.618-1.593-4.439c2.447-7.285,10.301-12.521,18.724-12.521Z" fill="#e0c1dc"></path><path d="M322.542,436.459c-5.008.114-8.537,1.082-10.928,4.781-1.081,1.65-2.788,2.163-4.439,1.195-1.821-1.081-1.593-2.902-.797-4.496c2.562-5.008,7.228-7.171,12.351-7.968c5.862-.911,11.269.74,15.537,5.179c1.992,2.106,2.049,3.984.171,5.635-2.106,1.821-3.415.512-4.895-1.139-2.105-2.333-4.78-3.358-7-3.187Z" fill="#e0c1dc"></path><path d="M389.415,266.913c-.057.285-.114,1.196-.341,1.992-.512,1.651-1.708,2.505-3.472,2.277-1.707-.285-2.561-1.366-2.675-3.13-.569-7.798-2.789-10.359-10.244-11.895-1.879-.399-3.244-1.309-2.96-3.415.228-1.992,1.537-2.846,3.586-2.903c8.081-.398,16.163,7.911,16.106,17.074Z" fill="#09b1ab"></path><path d="M103.936,115.864c-5.9763-.114-11.3262,1.764-16.05,5.407-1.9351,1.536-4.3255,1.593-5.2361,0-1.1952-2.106-.4553-3.586,1.4798-5.009c6.2036-4.667,13.0902-7.057,20.8873-6.659c3.13.171,4.781,1.366,4.667,3.358-.114,2.106-1.707,3.073-4.895,2.903-.284,0-.569,0-.853,0Z" fill="#47b1e4"></path><path d="M64.0969,250.408c-1.4797-.057-2.5042-.455-3.0164-1.65-.6261-1.309-.5122-2.618.4553-3.7c5.1222-5.35,10.7567-10.13,16.7896-14.399c1.5936-1.138,3.301-1.138,4.4962.569c1.1382,1.651.8537,3.301-.7968,4.496-5.6345,4.155-11.1551,8.424-15.879,13.66-.5691.74-1.4228.967-2.0489,1.024Z" fill="#fecd3e"></path><path d="M153.052,441.24c2.903-.171,5.862-.285,8.765-.513c2.106-.17,3.642.626,3.813,2.789s-1.195,3.244-3.301,3.415c-6.317.455-12.635.854-18.895,1.252-2.22.114-3.757-.797-3.813-3.13-.057-2.277,1.65-3.017,3.585-3.187c3.244-.228,6.545-.399,9.846-.626Z" fill="#f06d4f"></path><path d="M169.045,317.907c0-3.927.626-7.74,1.707-11.496.569-1.935,1.366-3.643,3.87-3.187c2.22.455,3.017,2.162,2.277,4.951-1.024,3.7-1.423,7.456-1.423,11.212c0,2.334-.569,3.984-3.073,4.269-1.992.227-3.358-1.651-3.358-4.326c0-.455,0-.91,0-1.423Z" fill="#47b1e4"></path><path d="M423.45,293.321c-.114-2.618-.171-5.236-.968-7.854-.626-2.049-.512-4.041,2.106-4.724c2.504-.626,3.643.797,4.212,3.016c1.138,4.44,1.48,8.936.967,13.489-.227,1.992-1.309,3.586-3.414,3.415-2.163-.171-3.245-1.764-3.074-3.984.057-1.081.114-2.22.171-3.358Z" fill="#fecd3e"></path></svg>