<svg xmlns="http://www.w3.org/2000/svg" width="178" height="46" fill="none"><path d="M131.8 19.2c-2-2.3-4.4-3.4-7.4-3.4-1.2 0-2.3.3-3.4 1-.4.2-.8.6-1.2.9-.4.4-.7.7-.8.9 0-.7-.1-1.3-.4-1.8-.4-.7-1.5-1-3.4-1s-3 .4-3.4 1.1c-.2.4-.4.8-.4 1.2V37c.1.3.2.7.4 1.2.4.8 1.6 1.2 3.4 1.2 1.9 0 3.1-.4 3.4-1.2.2-.4.4-.8.4-1.1.1-.4.1-.9.1-1.6v-7.9c0-1.2.4-2.1 1.1-2.8a4 4 0 0 1 2.9-1.1c1.2 0 2.1.3 2.8 1 .7.7 1.1 1.6 1.1 2.9v7.9c0 1 .1 1.8.3 2.3.3 1.1 1.5 1.7 3.7 1.7 1.9 0 3.1-.4 3.5-1.2.2-.4.3-.8.4-1.1.1-.4.1-.9.1-1.6V34c-.6-.9-1-1.8-1.4-2.8-.8-2.1-.9-4.4-.3-6.7.2-.8.4-1.5.7-2.2-.7-1.2-1.4-2.2-2.2-3.1Zm.3-11.7c0-.7-.5-1.4-1.6-2.1-.6-.4-1.2-.7-1.6-.7-.7 0-1.4.6-2 1.7-.3.4-.7.5-1.2.5-.3 0-.6-.2-1-.5-.4-.4-1-.8-1.6-1.1-.7-.4-1.6-.6-2.8-.6-1.2 0-2.3.4-3.4 1.2-.4.3-.8.7-1.2 1.1-.3.4-.5.7-.6.8-.1.1-.3.4-.5.8s-.4.8-.4 1.3c0 .4.4 1 1.2 1.7.8.7 1.5 1.1 2.1 1.1.6 0 1.2-.6 1.9-1.8.4-.4.7-.5 1.2-.5.3 0 .6.2 1 .6.4.4 1 .8 1.7 1.2.7.4 1.6.6 2.8.6 1.2 0 2.3-.4 3.4-1.3.4-.3.8-.7 1.1-1.1.3-.4.5-.7.6-.8.1-.2.3-.5.5-.8.3-.4.4-.8.4-1.3ZM41.6 36.2c-.6-.3-1-.8-1.1-1.6-.1-.8.3-2 1.2-3.7.3-.5.7-.9 1.5-1 .7-.1 1.8.1 3.1.7 1.3.5 2.5.8 3.5.6 1.8-.2 2.7-.7 2.6-1.4-.1-.6-1.1-.8-3.1-.9-1.9 0-3.8-.5-5.8-1.4-.9-.4-1.7-1.2-2.5-2.2-.7-1.1-1.2-2.4-1.4-4-.6-4.7 2.3-7.4 8.7-8.3 2.1-.3 4.3-.1 6.7.7 1.1.3 1.7.9 1.8 1.6.1.7-.1 1.6-.6 2.7s-1.2 1.9-1.9 2c-.4 0-1-.1-2.1-.4-1-.3-2.1-.4-3.2-.3-1.7.2-2.6.7-2.5 1.3.1.9 1.2 1.3 3.2 1.3s3.9.3 5.9.9c.9.3 1.7.9 2.4 1.9.7.9 1.2 2.2 1.4 3.7.2 1.5.1 2.9-.4 4.1-.4 1.1-1.1 2-2.1 2.7-1.8 1.2-4.1 1.9-7 2.3-2.6.5-5.5 0-8.3-1.3ZM140.8 15.8c-3 1.7-4.9 4.2-5.7 7.7-.6 2.3-.5 4.5.3 6.7.8 2.1 2 3.9 3.5 5.3 1.6 1.4 3.3 2.3 5.2 2.7 1.9.5 3.9.5 5.8 0 1.5-.3 2.9-1 4.2-1.9-.1-.1-.2-.2-.4-.3-.5-.5-.6-1.1-.5-1.8.2-.8.9-1.8 2.4-3.1.4-.4 1-.6 1.7-.4.3.1.6.2 1 .4.2-.5.4-1.1.5-1.7v-.2l-.6-.6c-.7-.7-1.3-1.7-1.6-2.9a9.9 9.9 0 0 1 0-4.2c.1-.6.3-1.2.5-1.7-1.8-2.8-4.3-4.5-7.4-5.3-2.8-.9-5.9-.4-8.9 1.3Zm5.1 14.7c-1-.2-1.8-.8-2.6-1.7-.7-.9-1-2.1-.6-3.5a4.1 4.1 0 0 1 2.1-2.9c1.1-.5 2.1-.6 3.2-.4 1 .3 1.9.8 2.7 1.8.7.9.9 2.1.6 3.5-.3 1.4-1.1 2.4-2.2 2.9-1.2.4-2.2.6-3.2.3Z" fill="#fff"></path><path d="M155.8 35c-.5-.5-.6-1.1-.5-1.8.2-.8.9-1.8 2.4-3.1.4-.4 1-.6 1.7-.4.7.2 1.6.7 2.7 1.7s2.1 1.5 3.1 1.7c1.8.4 2.7.2 2.9-.5.1-.6-.8-1.2-2.7-1.8-1.8-.6-3.5-1.7-5-3.2-.7-.7-1.3-1.7-1.6-2.9a9.9 9.9 0 0 1 0-4.2c1-4.6 4.6-6.3 10.9-5 2.1.4 4.1 1.4 6.1 2.8.9.7 1.3 1.4 1.2 2.1-.1.7-.6 1.5-1.5 2.4-.9.9-1.6 1.3-2.3 1.1-.3-.1-1-.4-1.8-1.1-.8-.6-1.8-1.1-2.9-1.3-1.7-.4-2.6-.2-2.8.4-.2.9.7 1.6 2.6 2.3 1.9.6 3.6 1.5 5.3 2.8.8.6 1.3 1.4 1.7 2.6.4 1.1.4 2.4.1 3.9-.3 1.5-.9 2.8-1.7 3.7-.8.9-1.7 1.6-2.9 1.9-2.1.5-4.5.5-7.3-.1-2.9-.5-5.4-1.9-7.7-4ZM39 26.5c-.7-1.1-1.2-2.4-1.4-4-.3-1.9.1-3.4 1-4.7-1.4-1.9-3.2-3.3-5.4-4.1-3-1.2-6.1-1.1-9.3.2a11.7 11.7 0 0 0-6.7 6.9c-.8 2.2-1 4.4-.6 6.7.4 1.8 1.1 3.3 2 4.7l4.7.7c1 .2 1.7.4 2.1.7.4.3.6.7.7 1.2.1.5 0 1.1-.1 1.9 0 .2-.1.3-.1.4 1.3.3 2.7.4 4.1.3 2.1-.2 4-1 5.9-2.3 1.9-1.3 3.3-3.2 4.2-5.5.2-.5.3-.9.5-1.4-.6-.4-1.1-1-1.6-1.7Zm-6.2.1c-.5 1.4-1.4 2.2-2.6 2.5-1.2.3-2.2.3-3.2 0-.9-.3-1.7-1-2.3-2-.6-1-.7-2.2-.2-3.6.5-1.4 1.3-2.2 2.5-2.6a5 5 0 0 1 3.2 0c1 .4 1.8 1.1 2.4 2.1.7 1.1.8 2.3.2 3.6Z" fill="#fff"></path><path d="m9.4 31.9 12 1.9c1 .2 1.7.4 2.1.7.4.3.6.7.7 1.2.1.5 0 1.1-.1 1.9-.1.8-.3 1.4-.5 1.8-.2.4-.5.7-.9.9-.6.2-1.4.2-2.4.1L4.4 37.9c-2.1-.3-3.2-1.1-3.4-2.3 0-.5 0-1.3.2-2.3L5.1 8.8c.1-.7.2-1.2.3-1.5.1-.4.3-.7.6-1.1.5-.7 1.7-.9 3.6-.6 2.1.3 3.2 1.1 3.4 2.2.1.5 0 1.3-.1 2.3L9.4 31.9ZM97.9 32.8 96.4 9.7c-.1-1-.2-1.8-.4-2.3-.1-.4-.4-.7-.6-.9-.3-.2-.6-.3-1.2-.5-.5 0-1.2-.1-2.1 0-.8.1-1.5.2-2.1.4-.6.2-1 .6-1.2 1.2-.2.5-.3 1.3-.2 2.5l.9 15.1c-2.3-2.6-6.8-8-13.6-16.1L74.8 8c-.2-.2-.6-.4-1.1-.5-.5-.1-1.2-.2-2.1-.1-.9.1-1.6.2-2.2.4-.6.2-1 .6-1.2 1.2-.2.5-.3 1.3-.2 2.5l1.6 24.9c0 .7.1 1.2.1 1.6.1.4.3.7.5 1.2.5.8 1.6 1.1 3.5 1 1.9-.1 3-.6 3.4-1.4.2-.5.3-.9.3-1.2V36l-.9-14.7c2.3 2.6 7 8.2 14.3 16.7.3.4.7.6 1.2.8.5.2 1.3.2 2.4.1 1.9-.1 3-.6 3.4-1.4v-1.1l.1-3.6ZM100.5 19.4c0-.7.1-1.2.1-1.5.1-.4.2-.7.5-1.2.5-.8 1.6-1.1 3.5-1 1.4.1 2.4.4 3 .9.5.4.7 1.1.7 2v1.3l-.8 15.6c0 .7-.1 1.2-.2 1.6 0 .3-.2.7-.5 1.1-.4.8-1.6 1.1-3.5 1-1.9-.1-3-.6-3.4-1.4-.2-.5-.3-.9-.3-1.2V35l.9-15.6Zm7.7-7.8c-.2.4-.6.7-1.2.8-.6.2-1.3.2-2.3.2-.9 0-1.7-.2-2.2-.4a2 2 0 0 1-1.2-1c-.2-.5-.3-.9-.3-1.2V8.4c0-.7.1-1.2.1-1.5.1-.4.2-.7.5-1.1.5-.8 1.6-1.1 3.5-1 1.9.1 3 .6 3.3 1.4.2.5.3.9.3 1.2v1.5c0 .7-.1 1.2-.2 1.6.2.2 0 .6-.3 1.1ZM134 2.8c-.7-.5-1.6-.6-2.3-.6-.1 0-.1 0-.1-.1s0-.1.1-.1c.7 0 1.6.1 2.4.7.4.3.7.6.9 1.1.2.5.2 1 .1 1.7 0 .1-.1.1-.1.1-.1 0-.1-.1-.1-.1.1-.7.1-1.2-.1-1.6-.1-.5-.4-.8-.8-1.1Z" fill="#fff"></path><path d="M134 5.2c.1-.5 0-.8 0-1.1-.1-.2-.2-.4-.4-.5-.5-.3-1.1-.5-1.7-.4-.5 0-1.1-.4-1.1-1.1 0-.7.6-1.1 1.1-1.1.8 0 2 .2 3 .8.5.4 1 .8 1.2 1.5.3.7.3 1.4.2 2.3-.1.7-.7 1-1.3.9-.7-.1-1.2-.6-1-1.3ZM2.1 3.9c-.8 1-.9 2.4-.9 3.3 0 .1 0 .1-.1.1s-.1 0-.1-.1c0-.9.2-2.3.9-3.5.8-1.1 2.2-1.9 4.4-1.7l.1.1c0 .1 0 .1-.1.1-2.2-.2-3.5.6-4.2 1.7Z" fill="#fff"></path><path d="M2.9 4.4c-.6.9-.7 2-.7 2.8 0 .5-.3 1.1-1 1.2-.7.1-1.1-.5-1.2-1 0-1.2.2-2.9 1.1-4.2 1-1.5 2.7-2.4 5.3-2.1.7.1 1 .7 1 1.2s-.5 1.1-1.2 1c-1.9-.3-2.8.4-3.3 1.1ZM67.9 42.7c1.1.9 2.6 1.1 3.6 1 .1 0 .1 0 .1.1s0 .1-.1.1c-1 .1-2.5-.1-3.7-1-1.2-.9-2.1-2.5-1.8-5.1 0-.1.1-.1.1-.1.1 0 .1.1.1.1-.3 2.6.5 4 1.7 4.9Z" fill="#fff"></path><path d="M68.5 41.9c.9.7 2.1.9 2.9.8.6 0 1.1.4 1.2 1 0 .6-.4 1.1-1 1.2-1.2.1-3-.2-4.4-1.2-1.5-1.1-2.5-3.1-2.2-6 .1-.6.6-1 1.2-1 .6.1 1 .6 1 1.2-.3 2.3.5 3.4 1.3 4ZM167.7 42.6c.2-.6.9-1 1.5-.8.9.3 3.5.4 5.3-1.7m0 0c.4-.5 1.1-.5 1.6-.1s.5 1.1.1 1.6c-2.6 3-6.2 2.9-7.7 2.4-.6-.2-1-.8-.8-1.4M40.3 14.5c-.5.2-1 0-1.2-.5-.3-.7-1.6-2.3-3.8-2.4m0 0a.9.9 0 0 1-.9-.9c0-.5.4-.9.9-.9 3.2.1 5 2.3 5.5 3.5.2.5 0 1-.5 1.2" fill="#fff"></path></svg>